<mxfile host="app.diagrams.net" modified="2024-04-14T20:45:30.464Z" agent="Mozilla/5.0 (Windows NT 10.0; Win64; x64) AppleWebKit/537.36 (KHTML, like Gecko) Chrome/111.0.0.0 Safari/537.36" version="24.2.5" etag="D4NR-_MND_w_EiqHnt1D" type="github">
  <diagram name="Page-1" id="l0VtpqXhQbtQUQVkDwt6">
    <mxGraphModel>
      <root>
        <mxCell id="0" />
        <mxCell id="1" parent="0" />
      </root>
    </mxGraphModel>
  </diagram>
</mxfile>
